<?xml version="1.0" encoding="UTF-8" standalone="no"?>
<svg
   xmlns:dc="http://purl.org/dc/elements/1.1/"
   xmlns:cc="http://creativecommons.org/ns#"
   xmlns:rdf="http://www.w3.org/1999/02/22-rdf-syntax-ns#"
   xmlns:svg="http://www.w3.org/2000/svg"
   xmlns="http://www.w3.org/2000/svg"
   xmlns:sodipodi="http://sodipodi.sourceforge.net/DTD/sodipodi-0.dtd"
   xmlns:inkscape="http://www.inkscape.org/namespaces/inkscape"
   id="svg8"
   version="1.1"
   viewBox="0 0 41.335846 8.0860005"
   height="8.0860004mm"
   width="41.335846mm"
   sodipodi:docname="logo.svg"
   inkscape:version="1.0 (4035a4f, 2020-05-01)">
  <sodipodi:namedview
     inkscape:document-rotation="0"
     pagecolor="#ffffff"
     bordercolor="#666666"
     borderopacity="1"
     objecttolerance="10"
     gridtolerance="10"
     guidetolerance="10"
     inkscape:pageopacity="0"
     inkscape:pageshadow="2"
     inkscape:window-width="1792"
     inkscape:window-height="995"
     id="namedview22"
     showgrid="false"
     fit-margin-top="0"
     fit-margin-left="0"
     fit-margin-right="0"
     fit-margin-bottom="0"
     inkscape:zoom="2.8829114"
     inkscape:cx="17.919727"
     inkscape:cy="17.531447"
     inkscape:window-x="0"
     inkscape:window-y="23"
     inkscape:window-maximized="1"
     inkscape:current-layer="text10" />
  <defs
     id="defs2">
    <rect
       id="rect12"
       height="46.113094"
       width="114.90476"
       y="102.80952"
       x="49.892857" />
  </defs>
  <metadata
     id="metadata5">
    <rdf:RDF>
      <cc:Work
         rdf:about="">
        <dc:format>image/svg+xml</dc:format>
        <dc:type
           rdf:resource="http://purl.org/dc/dcmitype/StillImage" />
        <dc:title />
      </cc:Work>
    </rdf:RDF>
  </metadata>
  <g
     transform="translate(-72.026296,-119.86155)"
     id="layer1">
    <g
       style="font-style:normal;font-weight:normal;font-size:10.5833px;line-height:1.25;font-family:sans-serif;white-space:pre;shape-inside:url(#rect12);fill:#b3b3b3;fill-opacity:1;stroke:none"
       id="text10"
       transform="matrix(1,0,0,1.0253876,21.808157,12.492578)"
       aria-label="alstonia.
">
      <path
         id="path23"
         style="font-style:normal;font-variant:normal;font-weight:normal;font-stretch:normal;font-family:Neufreit;-inkscape-font-specification:Neufreit;fill:#ffffff"
         d="m 51.675409,112.59642 c 0.702798,0 1.126543,-0.28422 1.426265,-0.7183 v 0.45475 c 0,0.20671 0.403075,0.20671 0.80615,0.20671 0.397907,0 0.795815,0 0.795815,-0.20671 v -3.19876 c 0,-1.45727 -0.80615,-2.01537 -2.11356,-2.01537 -0.707965,0 -1.317745,0.17053 -2.030877,0.55294 -0.07751,0.0413 -0.10852,0.11368 -0.10852,0.2067 0,0.14469 0.07751,0.3359 0.160196,0.53743 0.124023,0.29973 0.273884,0.57878 0.423746,0.57878 0.02067,0 0.04134,-0.005 0.06201,-0.0155 0.547769,-0.28938 1.007687,-0.38757 1.405595,-0.38757 0.32556,0 0.475421,0.17053 0.475421,0.40825 v 0.25838 l -0.754473,0.14469 c -1.173051,0.22738 -2.005039,0.79581 -2.005039,1.76216 0,0.97151 0.645953,1.43143 1.45727,1.43143 z m 0.666624,-1.4366 c -0.232543,0 -0.387572,-0.13952 -0.387572,-0.33589 0,-0.22738 0.186035,-0.38241 0.418578,-0.41858 l 0.604612,-0.12402 v 0.32556 c 0,0.24804 -0.211872,0.55293 -0.635618,0.55293 z" />
      <path
         id="path25"
         style="font-style:normal;font-variant:normal;font-weight:normal;font-stretch:normal;font-family:Neufreit;-inkscape-font-specification:Neufreit;fill:#ffffff"
         d="m 57.452816,112.59642 c 0.289387,0 0.594277,-0.0258 0.894,-0.0878 0.186034,-0.0362 0.186034,-0.44441 0.186034,-0.84749 0,-0.37723 0,-0.7493 -0.186034,-0.7493 -0.0155,0 -0.03101,0 -0.04651,0.005 -0.10852,0.031 -0.206705,0.0414 -0.294555,0.0414 -0.211873,0 -0.294555,-0.12919 -0.294555,-0.30489 v -5.7309 c 0,-0.21188 -0.43408,-0.21188 -0.868161,-0.21188 -0.43408,0 -0.868161,0 -0.868161,0.21188 v 6.1133 c 0,0.85266 0.475422,1.56062 1.477941,1.56062 z" />
      <path
         id="path27"
         style="font-style:normal;font-variant:normal;font-weight:normal;font-stretch:normal;font-family:Neufreit;-inkscape-font-specification:Neufreit;fill:#ffffff"
         d="m 60.899624,112.59642 c 1.333247,0 2.433952,-0.33589 2.428784,-1.6588 0,-1.31258 -1.116207,-1.5658 -1.839675,-1.72599 -0.377237,-0.0879 -0.671791,-0.1602 -0.671791,-0.3514 0,-0.1912 0.186034,-0.31006 0.573606,-0.31006 0.335896,0 0.728636,0.15503 1.043861,0.33073 0.02584,0.0155 0.05168,0.0207 0.07751,0.0207 0.170532,0 0.335896,-0.28939 0.459919,-0.59428 0.09302,-0.23254 0.170532,-0.44958 0.170532,-0.59944 0,-0.093 -0.02584,-0.15503 -0.08785,-0.1912 -0.511595,-0.29456 -1.069699,-0.39791 -1.72082,-0.39791 -1.312577,0 -2.253085,0.49092 -2.253085,1.69498 0,1.25573 1.11104,1.48828 1.819005,1.64847 0.377236,0.093 0.692462,0.17054 0.692462,0.39274 0,0.20154 -0.165364,0.30489 -0.656289,0.30489 -0.346231,0 -0.878496,-0.14986 -1.21956,-0.33589 -0.03101,-0.0155 -0.06201,-0.0207 -0.09302,-0.0207 -0.175699,0 -0.310058,0.26355 -0.439248,0.58911 -0.09818,0.23771 -0.1757,0.45475 -0.1757,0.60978 0,0.093 0.02584,0.16019 0.09302,0.19637 0.516762,0.28938 1.142045,0.3979 1.798334,0.3979 z" />
      <path
         id="path29"
         style="font-style:normal;font-variant:normal;font-weight:normal;font-stretch:normal;font-family:Neufreit;-inkscape-font-specification:Neufreit;fill:#ffffff"
         d="m 66.65636,112.59642 c 0.594277,0 1.074866,-0.0982 1.529617,-0.35656 0.05684,-0.031 0.07752,-0.10336 0.07752,-0.19121 0,-0.18603 -0.09302,-0.45991 -0.165364,-0.65112 -0.108521,-0.30489 -0.222208,-0.56327 -0.377237,-0.56327 -0.02584,0 -0.05168,0.005 -0.07751,0.0207 -0.232543,0.13436 -0.485756,0.20154 -0.697629,0.20154 -0.325561,0 -0.434081,-0.25321 -0.434081,-0.51676 v -1.81384 H 67.5917 c 0.222208,0 0.222208,-0.37724 0.222208,-0.7493 0,-0.37724 0,-0.74931 -0.222208,-0.74931 h -1.080034 v -1.34358 c 0,-0.21188 -0.43408,-0.21188 -0.868161,-0.21188 -0.428913,0 -0.868161,0 -0.868161,0.21188 v 1.34358 h -0.759642 c -0.211872,0 -0.211872,0.37207 -0.211872,0.74931 0,0.37206 0,0.7493 0.211872,0.7493 h 0.759642 v 1.81384 c 0,1.31258 0.60978,2.05671 1.881016,2.05671 z" />
      <path
         id="path31"
         style="font-style:normal;font-variant:normal;font-weight:normal;font-stretch:normal;font-family:Neufreit;-inkscape-font-specification:Neufreit;fill:#ffffff"
         d="m 71.209038,112.59642 c 1.65364,0 2.687166,-1.22989 2.687166,-2.73884 0,-1.51411 -1.033526,-2.73884 -2.687166,-2.73884 -1.648473,0 -2.676831,1.22473 -2.676831,2.73884 0,1.50895 1.028358,2.73884 2.676831,2.73884 z m 0,-1.63813 c -0.568439,0 -0.950843,-0.49093 -0.950843,-1.10071 0,-0.61495 0.382404,-1.10587 0.950843,-1.10587 0.573606,0 0.956011,0.49609 0.956011,1.10587 0,0.60461 -0.382405,1.10071 -0.956011,1.10071 z" />
      <path
         id="path33"
         style="font-style:normal;font-variant:normal;font-weight:normal;font-stretch:normal;font-family:Neufreit;-inkscape-font-specification:Neufreit;fill:#ffffff"
         d="m 75.823729,112.53958 c 0.434081,0 0.868161,0 0.868161,-0.21187 v -2.75952 c 0,-0.43924 0.273885,-0.81648 0.764809,-0.81648 0.423746,0 0.620115,0.31522 0.620115,0.67179 v 2.90421 c 0,0.21187 0.439249,0.21187 0.868162,0.21187 0.439248,0 0.868161,0 0.868161,-0.21187 v -3.0179 c 0,-1.36942 -0.723468,-2.19107 -1.803502,-2.19107 -0.645953,0 -1.080034,0.36173 -1.41593,0.82682 v -0.5581 c 0,-0.20671 -0.408242,-0.20671 -0.816485,-0.20671 -0.408242,0 -0.816485,0 -0.816485,0.20671 v 4.94025 c 0,0.21187 0.428913,0.21187 0.862994,0.21187 z" />
      <path
         id="path35"
         style="font-style:normal;font-variant:normal;font-weight:normal;font-stretch:normal;font-family:Neufreit;-inkscape-font-specification:Neufreit;fill:#ffffff"
         d="m 81.968037,106.68466 c 0.707964,0 1.038693,-0.36174 1.038693,-0.96118 0,-0.60461 -0.330729,-0.96635 -1.038693,-0.96635 -0.707965,0 -1.038693,0.36174 -1.038693,0.96635 0,0.59944 0.330728,0.96118 1.038693,0.96118 z m 0,5.85492 c 0.43408,0 0.862993,0 0.862993,-0.21187 v -4.94025 c 0,-0.21188 -0.428913,-0.21188 -0.857826,-0.21188 -0.439248,0 -0.873329,0 -0.873329,0.21188 v 4.94025 c 0,0.21187 0.434081,0.21187 0.868162,0.21187 z" />
      <path
         id="path37"
         style="font-style:normal;font-variant:normal;font-weight:normal;font-stretch:normal;font-family:Neufreit;-inkscape-font-specification:Neufreit;fill:#ffffff"
         d="m 85.264982,112.59642 c 0.702798,0 1.126543,-0.28422 1.426265,-0.7183 v 0.45475 c 0,0.20671 0.403075,0.20671 0.80615,0.20671 0.397907,0 0.795815,0 0.795815,-0.20671 v -3.19876 c 0,-1.45727 -0.80615,-2.01537 -2.11356,-2.01537 -0.707965,0 -1.317745,0.17053 -2.030877,0.55294 -0.07752,0.0413 -0.10852,0.11368 -0.10852,0.2067 0,0.14469 0.07751,0.3359 0.160196,0.53743 0.124023,0.29973 0.273884,0.57878 0.423746,0.57878 0.02067,0 0.04134,-0.005 0.06201,-0.0155 0.547769,-0.28938 1.007687,-0.38757 1.405595,-0.38757 0.32556,0 0.475421,0.17053 0.475421,0.40825 v 0.25838 l -0.754473,0.14469 c -1.173052,0.22738 -2.005039,0.79581 -2.005039,1.76216 0,0.97151 0.645953,1.43143 1.45727,1.43143 z m 0.666624,-1.4366 c -0.232543,0 -0.387572,-0.13952 -0.387572,-0.33589 0,-0.22738 0.186035,-0.38241 0.418578,-0.41858 l 0.604612,-0.12402 v 0.32556 c 0,0.24804 -0.211872,0.55293 -0.635618,0.55293 z" />
      <path
         id="path39"
         style="font-style:normal;font-variant:normal;font-weight:normal;font-stretch:normal;font-family:Neufreit;-inkscape-font-specification:Neufreit;fill:#ffffff"
         d="m 90.566969,112.59642 c 0.547769,0 0.987017,-0.44958 0.987017,-0.99735 0,-0.54777 -0.444416,-0.99218 -0.987017,-0.99218 -0.547768,0 -0.992184,0.44441 -0.992184,0.99218 0,0.54777 0.439248,0.99735 0.992184,0.99735 z" />
    </g>
  </g>
</svg>
